<svg version="1.2" xmlns="http://www.w3.org/2000/svg" viewBox="0 0 536 536" width="536" height="536"><style></style><path fill-rule="evenodd" d="m453.7 133.9q12.3 15.4 10.5 34.1v0.1q-6.4 66.3-26.7 128.6 31.1 123.9-41.4 165.1 0.8 2.2 0.7 4.8c-1 32.4-14.1 52.6-39.2 60.7l-0.1 0.1q-32 10.8-63.7 7h-0.1q-31.4-4-57.2-17l0.1 0.1q-37.8-18.5-36.6-49.5-0.8-9.3 7.3-21.8-7.8-2.8-15.2-6.6h0.1q-25-12.6-37.3-35.1-0.1-0.1-0.1-0.2-8.9-15.7-16.8-22.6l-0.1-0.1q-8.7-6.3-35.5-12.6-42-10-45.4-44.3v-0.1q-4.5-35.6 27.2-48.5 26.6-11.2 50.1-4.6l-0.1-0.1q21.1 5.5 38.7 15.9h-0.1q0.7 0.4 1.4 0.8-34.3-143.7-35.9-163.4h0.1q-2.4-27.1 6.1-42.2v0.1q9-17.3 27.9-24.1 0.1-0.1 0.3-0.1 18.9-6.3 37 1.9l0.2 0.1q2.5 1.1 4.7 2.6 0.5-5.9 1.4-10.7v0.2q5.3-33.1 30.3-43h-0.1q24.6-10.7 45.6 1.7l0.1 0.1q19.4 11.2 27.4 32.4l0.1 0.2q1 2.7 2.1 10.3 11.9-10 27.9-11.1 20.3-1.4 35.6 12.3 14.9 13.2 16.6 33.3v0.1q0.9 13.6 1.3 27.1 9.1-2.1 19.5-0.4 18.9 3 31.3 18.4zm-16.9 31.6q0.6-7.9-4.7-14.4-5.6-7-14.1-8.4h-0.1q-8.1-1.4-14.4 3-0.2 0.1-0.3 0.2-0.4 50.4-7.3 114.8-0.6 5.6-5.1 9.2-4.4 3.6-10.1 3-5.6-0.6-9.1-5.1-3.6-4.4-3-10.1 7-65.7 7-116.4 0-1 0-2 0-10.5-0.1-20.5-0.5-14-1.5-28-0.7-9-7.3-14.9-6.7-5.9-15.5-5.3-8.8 0.7-14.8 7.4l-0.1 0.1q-5.6 6.7-5 15.6v0.2q0.4 7.4 2.6 146.7v0.5q0.1 5.6-3.8 9.7-3.9 4.1-9.5 4.2-5.7 0.2-9.8-3.6-4.2-3.9-4.4-9.4 0-0.3 0-0.5-8.2-173.3-13-188.4-4.4-11.8-15.3-18.1l0.2 0.1q-9.7-5.2-21.1-0.3h-0.1q-11.3 5.6-14 22.1v0.2q-3.8 22.7 3.8 69.5 12.9 44.6 24 118.7 0.8 5.6-2.5 10.1-3.4 4.6-9 5.4-5.6 0.9-10.3-2.5-4.5-3.4-5.4-9-10.8-72.1-23.4-115.3-0.1-0.4-0.2-0.9-2.6-8.9-3.3-10.9-0.1-0.4-0.2-0.8-3.7-12.5-8.2-24.9l0.1 0.1q-2.8-7.6-10.2-11.2-0.1 0-0.2-0.1-8-3.6-16.3-0.9-0.2 0.1-0.3 0.1-8.5 3.2-12.6 10.9v0.1q-4.6 9.6-3.1 26.8h0.1q1.8 20.3 38.6 174.3 4.8-0.1 11.5-0.4h0.2q19.3-1.4 48 11.1v-0.1q29.7 12.5 47.8 49.6 2.5 5.2 0.6 10.5-1.9 5.4-7 7.9-5.1 2.5-10.5 0.6-5.4-1.9-7.9-7-13-26.7-34-36.2v-0.1q-21.4-9.3-35.6-8.8h-0.2q-18.1 0.9-24.7 0.4-0.8-0.1-1.6-0.2-0.3-0.1-0.8-0.2-13.6-2.3-31.3-12.7h-0.1q-14.4-8.4-31.6-12.8l-0.1-0.1q-15.2-3.9-32.5 3.4-12.2 5.4-10.3 19.6v0.1q3 16 24.4 21.1 35.7 8.4 46.6 18l0.1 0.1q11.2 9 23.4 30.6l0.1 0.2q8.5 15.3 25.6 23.8h0.1q18.8 9.7 40.7 12.4 5.7 0.7 9.2 5.2 3.5 4.5 2.8 10.2-0.7 5.6-5.2 9.1-4.5 3.5-10.2 2.8-3-0.3-6.1-0.9-7.3 8.9-8.4 14.2 1.2 14.9 21.3 24.8l0.1 0.1q21.7 10.9 48.2 14.1 25.7 3 51.6-5.8l-0.1 0.1q17-6.7 20.1-28-1.9 0.6-3.7 1.1-5.5 1.6-10.5-1.1-5-2.7-6.6-8.2-1.6-5.4 1.1-10.5 2.7-5 8.2-6.6 84.5-26.7 52.7-148.3-1.1-4 0.2-7.9 20.5-61.2 26.7-126.3z"/><path  d="m8.8 641.1q-1.6 0.8-3.3 1.2-1.8 0.5-3.7 0.5-5.6 0-8.9-3.2-3.4-3.2-3.4-8.6 0-5.4 3.4-8.6 3.3-3.2 8.9-3.2 1.9 0 3.7 0.5 1.7 0.4 3.3 1.2v4.7q-1.6-1.1-3.2-1.6-1.5-0.5-3.3-0.5-3.1 0-4.9 2-1.8 2-1.8 5.5 0 3.5 1.8 5.5 1.8 2 4.9 2 1.8 0 3.3-0.5 1.6-0.5 3.2-1.6z"/><path  d="m26.1 630q-0.7-0.4-1.4-0.5-0.7-0.2-1.5-0.2-2.1 0-3.2 1.3-1.1 1.4-1.1 3.9v7.8h-5.5v-17h5.5v2.8q1-1.7 2.4-2.4 1.3-0.8 3.3-0.8 0.2 0 0.5 0 0.4 0.1 1 0.1z"/><path fill-rule="evenodd" d="m45.8 633.8v1.5h-12.7q0.2 1.9 1.3 2.9 1.2 1 3.4 1 1.7 0 3.5-0.5 1.8-0.6 3.7-1.6v4.2q-2 0.7-3.9 1.1-1.9 0.4-3.8 0.4-4.7 0-7.2-2.4-2.6-2.3-2.6-6.6 0-4.1 2.5-6.5 2.5-2.4 6.9-2.4 4.1 0 6.5 2.4 2.4 2.4 2.4 6.5zm-5.6-1.8q0-1.6-0.9-2.5-0.9-1-2.4-1-1.6 0-2.6 0.9-0.9 0.9-1.2 2.6z"/><path fill-rule="evenodd" d="m65.8 632.6v9.7h-5.5v-2.5q-1.1 1.6-2.4 2.3-1.4 0.7-3.3 0.7-2.7 0-4.3-1.6-1.7-1.5-1.7-4 0-3 2.1-4.4 2-1.4 6.4-1.4h3.2v-0.4q0-1.3-1-1.9-1-0.6-3.2-0.6-1.7 0-3.2 0.4-1.5 0.3-2.8 1v-4.1q1.7-0.5 3.5-0.7 1.8-0.2 3.5-0.2 4.6 0 6.7 1.8 2 1.8 2 5.9zm-8.3 2.1q-1.7 0-2.6 0.6-0.8 0.5-0.8 1.7 0 1 0.7 1.6 0.7 0.6 1.9 0.6 1.5 0 2.6-1.1 1-1.1 1-2.8v-0.6z"/><path  d="m76.8 620.5v4.8h5.6v3.9h-5.6v7.2q0 1.2 0.5 1.6 0.5 0.4 1.9 0.4h2.8v3.9h-4.7q-3.2 0-4.6-1.3-1.3-1.4-1.3-4.6v-7.2h-2.7v-3.9h2.7v-4.8z"/><path fill-rule="evenodd" d="m102.7 633.8v1.5h-12.7q0.2 1.9 1.4 2.9 1.2 1 3.3 1 1.7 0 3.5-0.5 1.8-0.6 3.7-1.6v4.2q-1.9 0.7-3.8 1.1-2 0.4-3.9 0.4-4.6 0-7.2-2.4-2.5-2.3-2.5-6.6 0-4.1 2.5-6.5 2.5-2.4 6.9-2.4 4 0 6.4 2.4 2.4 2.4 2.4 6.5zm-5.6-1.8q0-1.6-0.9-2.5-0.9-1-2.3-1-1.6 0-2.6 0.9-1 0.9-1.2 2.6z"/><path fill-rule="evenodd" d="m118.4 627.8v-9.1h5.5v23.6h-5.5v-2.4q-1.1 1.5-2.5 2.2-1.3 0.7-3.1 0.7-3.1 0-5.2-2.5-2-2.5-2-6.5 0-3.9 2-6.4 2.1-2.5 5.2-2.5 1.8 0 3.1 0.7 1.4 0.7 2.5 2.2zm-3.5 11q1.7 0 2.6-1.2 0.9-1.3 0.9-3.8 0-2.4-0.9-3.7-0.9-1.2-2.6-1.2-1.8 0-2.7 1.2-0.9 1.3-0.9 3.7 0 2.5 0.9 3.8 0.9 1.2 2.7 1.2z"/><path fill-rule="evenodd" d="m145.4 627.8q1.1-1.5 2.5-2.2 1.3-0.7 3.1-0.7 3.2 0 5.2 2.5 2 2.5 2 6.4 0 4-2 6.5-2 2.5-5.2 2.5-1.8 0-3.1-0.7-1.4-0.7-2.5-2.2v2.4h-5.4v-23.6h5.4zm3.6 11q1.7 0 2.7-1.3 0.9-1.3 0.9-3.7 0-2.4-0.9-3.7-1-1.3-2.7-1.3-1.7 0-2.7 1.3-0.9 1.3-0.9 3.7 0 2.4 0.9 3.7 1 1.3 2.7 1.3z"/><path  d="m160 625.3h5.4l4.6 11.6 3.9-11.6h5.4l-7.1 18.6q-1.1 2.9-2.5 4-1.5 1.1-3.8 1.2h-3.2v-3.6h1.7q1.4 0 2-0.5 0.7-0.4 1-1.5l0.2-0.5z"/><path  d="m211.6 641.1q-1.6 0.8-3.4 1.2-1.7 0.5-3.6 0.5-5.7 0-9-3.2-3.3-3.2-3.3-8.6 0-5.4 3.3-8.6 3.3-3.2 9-3.2 1.9 0 3.6 0.5 1.8 0.4 3.4 1.2v4.7q-1.7-1.1-3.2-1.6-1.6-0.5-3.4-0.5-3.1 0-4.9 2-1.8 2-1.8 5.5 0 3.5 1.8 5.5 1.8 2 4.9 2 1.8 0 3.4-0.5 1.5-0.5 3.2-1.6z"/><path  d="m228.8 630q-0.7-0.4-1.4-0.5-0.7-0.2-1.4-0.2-2.1 0-3.3 1.3-1.1 1.4-1.1 3.9v7.8h-5.4v-17h5.4v2.8q1-1.7 2.4-2.4 1.4-0.8 3.3-0.8 0.2 0 0.6 0 0.3 0.1 0.9 0.1z"/><path  d="m231.5 625.3h5.4v17h-5.4zm0-6.6h5.4v4.4h-5.4z"/><path  d="m255.5 625.8v4.2q-1.8-0.7-3.4-1.1-1.6-0.4-3.1-0.4-1.5 0-2.3 0.4-0.7 0.4-0.7 1.2 0 0.7 0.5 1 0.6 0.4 2.1 0.5l0.9 0.2q4.2 0.5 5.7 1.7 1.4 1.2 1.4 3.8 0 2.7-2 4.1-2 1.4-6 1.4-1.7 0-3.5-0.3-1.8-0.3-3.7-0.8v-4.1q1.7 0.8 3.4 1.2 1.7 0.4 3.4 0.4 1.6 0 2.4-0.5 0.8-0.4 0.8-1.3 0-0.7-0.5-1.1-0.6-0.3-2.2-0.5l-1-0.2q-3.6-0.4-5.1-1.6-1.4-1.3-1.4-3.8 0-2.7 1.8-4 1.9-1.3 5.7-1.3 1.5 0 3.2 0.2 1.6 0.3 3.6 0.7z"/><path  d="m266.6 620.5v4.8h5.6v3.9h-5.6v7.2q0 1.2 0.5 1.6 0.5 0.4 1.9 0.4h2.8v3.9h-4.7q-3.2 0-4.6-1.3-1.3-1.4-1.3-4.6v-7.2h-2.7v-3.9h2.7v-4.8z"/><path  d="m275.6 625.3h5.4v17h-5.4zm0-6.6h5.4v4.4h-5.4z"/><path fill-rule="evenodd" d="m302.2 632.6v9.7h-5.5v-2.5q-1.1 1.6-2.5 2.3-1.3 0.7-3.3 0.7-2.6 0-4.3-1.6-1.6-1.5-1.6-4 0-3 2-4.4 2.1-1.4 6.5-1.4h3.2v-0.4q0-1.3-1-1.9-1.1-0.6-3.2-0.6-1.8 0-3.3 0.4-1.5 0.3-2.8 1v-4.1q1.8-0.5 3.5-0.7 1.8-0.2 3.6-0.2 4.6 0 6.6 1.8 2.1 1.8 2.1 5.9zm-8.3 2.1q-1.8 0-2.6 0.6-0.9 0.5-0.9 1.7 0 1 0.7 1.6 0.7 0.6 2 0.6 1.5 0 2.5-1.1 1.1-1.1 1.1-2.8v-0.6z"/><path  d="m324.3 632v10.3h-5.4v-7.9q0-2.2-0.1-3-0.1-0.9-0.4-1.3-0.3-0.5-0.9-0.8-0.5-0.3-1.2-0.3-1.7 0-2.7 1.3-0.9 1.3-0.9 3.7v8.3h-5.5v-17h5.5v2.5q1.2-1.5 2.6-2.2 1.4-0.7 3-0.7 3 0 4.5 1.8 1.5 1.8 1.5 5.3z"/><path fill-rule="evenodd" d="m337.5 624.9q4.3 0 6.8 2.4 2.5 2.3 2.5 6.5 0 4.2-2.5 6.6-2.5 2.4-6.8 2.4-4.4 0-6.9-2.4-2.5-2.4-2.5-6.6 0-4.2 2.5-6.5 2.5-2.4 6.9-2.4zm0 3.9q-1.8 0-2.8 1.3-0.9 1.3-0.9 3.7 0 2.5 0.9 3.8 1 1.3 2.8 1.3 1.7 0 2.7-1.3 0.9-1.3 0.9-3.8 0-2.4-0.9-3.7-1-1.3-2.7-1.3z"/><path  d="m360.7 619.7h19.1v3.5l-12.2 14.7h12.5v4.4h-19.7v-3.5l12.1-14.7h-11.8z"/><path fill-rule="evenodd" d="m392.2 624.9q4.4 0 6.9 2.4 2.5 2.3 2.5 6.5 0 4.2-2.5 6.6-2.5 2.4-6.9 2.4-4.4 0-6.9-2.4-2.4-2.4-2.4-6.6 0-4.2 2.4-6.5 2.5-2.4 6.9-2.4zm0 3.9q-1.8 0-2.7 1.3-1 1.3-1 3.7 0 2.5 1 3.8 0.9 1.3 2.7 1.3 1.8 0 2.7-1.3 1-1.3 1-3.8 0-2.4-1-3.7-0.9-1.3-2.7-1.3z"/><path  d="m405.3 635.7v-10.4h5.5v1.7q0 1.4 0 3.5 0 2.1 0 2.8 0 2 0.1 2.9 0.1 0.9 0.3 1.4 0.4 0.5 0.9 0.8 0.5 0.3 1.2 0.3 1.7 0 2.7-1.3 1-1.3 1-3.7v-8.4h5.4v17h-5.4v-2.4q-1.2 1.5-2.6 2.2-1.4 0.7-3.1 0.7-2.9 0-4.4-1.8-1.6-1.8-1.6-5.3z"/><path  d="m441.4 625.8v4.5q-1.1-0.8-2.2-1.1-1.1-0.4-2.3-0.4-2.3 0-3.6 1.3-1.3 1.4-1.3 3.7 0 2.4 1.3 3.8 1.3 1.3 3.6 1.3 1.2 0 2.4-0.4 1.1-0.4 2.1-1.1v4.4q-1.3 0.5-2.6 0.7-1.3 0.3-2.6 0.3-4.6 0-7.2-2.4-2.6-2.3-2.6-6.6 0-4.2 2.6-6.5 2.6-2.4 7.2-2.4 1.3 0 2.6 0.2 1.3 0.3 2.6 0.7z"/><path fill-rule="evenodd" d="m462 632.6v9.7h-5.5v-2.5q-1.1 1.6-2.4 2.3-1.4 0.7-3.3 0.7-2.7 0-4.3-1.6-1.7-1.5-1.7-4 0-3 2.1-4.4 2-1.4 6.4-1.4h3.2v-0.4q0-1.3-1-1.9-1-0.6-3.1-0.6-1.8 0-3.3 0.4-1.5 0.3-2.8 1v-4.1q1.8-0.5 3.5-0.7 1.8-0.2 3.5-0.2 4.6 0 6.7 1.8 2 1.8 2 5.9zm-8.3 2.1q-1.7 0-2.5 0.6-0.9 0.5-0.9 1.7 0 1 0.7 1.6 0.7 0.6 1.9 0.6 1.6 0 2.6-1.1 1-1.1 1-2.8v-0.6z"/><path  d="m480.4 625.8v4.2q-1.8-0.7-3.4-1.1-1.6-0.4-3.1-0.4-1.5 0-2.3 0.4-0.7 0.4-0.7 1.2 0 0.7 0.5 1 0.6 0.4 2.1 0.5l1 0.2q4.1 0.5 5.6 1.7 1.4 1.2 1.4 3.8 0 2.7-2 4.1-2 1.4-6 1.4-1.6 0-3.5-0.3-1.8-0.3-3.6-0.8v-4.1q1.6 0.8 3.3 1.2 1.7 0.4 3.5 0.4 1.5 0 2.3-0.5 0.9-0.4 0.9-1.3 0-0.7-0.6-1.1-0.6-0.3-2.2-0.5l-1-0.2q-3.6-0.4-5.1-1.6-1.4-1.3-1.4-3.8 0-2.7 1.8-4 1.9-1.3 5.7-1.3 1.5 0 3.2 0.2 1.6 0.3 3.6 0.7z"/><path  d="m1.8 649.8v3.6h-3q-1.2 0-1.6 0.4-0.5 0.4-0.5 1.4v1.2h4.7v3.9h-4.7v13.1h-5.4v-13.1h-2.7v-3.9h2.7v-1.2q0-2.7 1.5-4.1 1.6-1.3 4.8-1.3z"/><path  d="m16.8 661.1q-0.7-0.4-1.4-0.5-0.7-0.2-1.5-0.2-2.1 0-3.2 1.4-1.1 1.3-1.1 3.8v7.8h-5.5v-17h5.5v2.8q1-1.6 2.4-2.4 1.3-0.8 3.3-0.8 0.2 0 0.5 0.1 0.4 0 1 0z"/><path fill-rule="evenodd" d="m27.6 656q4.4 0 6.8 2.4 2.5 2.4 2.5 6.6 0 4.2-2.5 6.5-2.4 2.4-6.8 2.4-4.4 0-6.9-2.4-2.5-2.3-2.5-6.5 0-4.2 2.5-6.6 2.5-2.4 6.9-2.4zm0 3.9q-1.8 0-2.8 1.3-0.9 1.3-0.9 3.8 0 2.4 0.9 3.7 1 1.3 2.8 1.3 1.8 0 2.7-1.3 1-1.3 1-3.7 0-2.5-1-3.8-0.9-1.3-2.7-1.3z"/><path  d="m56.6 659.3q1.1-1.6 2.5-2.4 1.4-0.9 3.1-0.9 2.9 0 4.5 1.8 1.5 1.8 1.5 5.3v10.3h-5.5v-8.8q0-0.2 0-0.4 0.1-0.3 0.1-0.6 0-1.9-0.6-2.7-0.5-0.8-1.7-0.8-1.5 0-2.4 1.3-0.8 1.3-0.9 3.7v8.3h-5.4v-8.8q0-2.9-0.5-3.7-0.5-0.8-1.7-0.8-1.6 0-2.5 1.3-0.8 1.3-0.8 3.7v8.3h-5.5v-17h5.5v2.5q1-1.4 2.3-2.1 1.3-0.8 2.9-0.8 1.7 0 3.1 0.9 1.3 0.8 2 2.4z"/><path  d="m90 651.6v4.8h5.7v3.9h-5.7v7.2q0 1.2 0.5 1.6 0.5 0.5 1.9 0.5h2.8v3.8h-4.7q-3.2 0-4.5-1.3-1.4-1.3-1.4-4.6v-7.2h-2.7v-3.9h2.7v-4.8z"/><path  d="m116.1 663.1v10.3h-5.5v-7.9q0-2.2-0.1-3-0.1-0.8-0.3-1.3-0.3-0.5-0.9-0.8-0.5-0.3-1.2-0.3-1.7 0-2.7 1.3-1 1.4-1 3.7v8.3h-5.4v-23.6h5.4v9.1q1.2-1.5 2.6-2.2 1.4-0.7 3.1-0.7 2.9 0 4.5 1.8 1.5 1.8 1.5 5.3z"/><path fill-rule="evenodd" d="m138.1 664.9v1.5h-12.7q0.2 2 1.4 2.9 1.2 1 3.3 1 1.7 0 3.5-0.5 1.8-0.5 3.7-1.6v4.2q-1.9 0.8-3.9 1.1-1.9 0.4-3.8 0.4-4.6 0-7.2-2.4-2.5-2.3-2.5-6.5 0-4.2 2.5-6.6 2.5-2.4 6.9-2.4 4 0 6.4 2.4 2.4 2.5 2.4 6.5zm-5.6-1.8q0-1.6-0.9-2.5-0.9-1-2.3-1-1.6 0-2.6 0.9-1 0.9-1.2 2.6z"/><path  d="m153.3 650.8h6.5l8.3 15.5v-15.5h5.5v22.6h-6.5l-8.2-15.5v15.5h-5.6z"/><path fill-rule="evenodd" d="m187.2 656q4.4 0 6.9 2.4 2.4 2.4 2.4 6.6 0 4.2-2.4 6.5-2.5 2.4-6.9 2.4-4.4 0-6.9-2.4-2.5-2.3-2.5-6.5 0-4.2 2.5-6.6 2.5-2.4 6.9-2.4zm0 3.9q-1.8 0-2.8 1.3-0.9 1.3-0.9 3.8 0 2.4 0.9 3.7 1 1.3 2.8 1.3 1.8 0 2.7-1.3 1-1.3 1-3.7 0-2.5-1-3.8-0.9-1.3-2.7-1.3z"/><path  d="m200.3 666.8v-10.4h5.5v1.7q0 1.4 0 3.5-0.1 2.1-0.1 2.8 0 2 0.1 3 0.1 0.9 0.4 1.3 0.3 0.5 0.9 0.8 0.5 0.3 1.2 0.3 1.7 0 2.7-1.3 1-1.3 1-3.7v-8.4h5.4v17h-5.4v-2.4q-1.3 1.5-2.7 2.2-1.3 0.7-3 0.7-2.9 0-4.5-1.8-1.5-1.8-1.5-5.3z"/><path  d="m239.7 663.1v10.3h-5.4v-7.9q0-2.2-0.1-3-0.1-0.8-0.4-1.3-0.3-0.5-0.9-0.8-0.5-0.3-1.2-0.3-1.7 0-2.7 1.3-0.9 1.4-0.9 3.7v8.3h-5.5v-17h5.5v2.5q1.2-1.5 2.6-2.2 1.4-0.7 3-0.7 3 0 4.5 1.8 1.5 1.8 1.5 5.3z"/><path fill-rule="evenodd" d="m255.9 650.8h9.7q4.3 0 6.6 1.9 2.3 1.9 2.3 5.5 0 3.5-2.3 5.4-2.3 2-6.6 2h-3.9v7.8h-5.8zm5.8 4.3v6.3h3.2q1.7 0 2.7-0.8 0.9-0.8 0.9-2.4 0-1.5-0.9-2.3-1-0.8-2.7-0.8z"/><path  d="m291 661.1q-0.7-0.4-1.4-0.5-0.7-0.2-1.4-0.2-2.1 0-3.2 1.4-1.2 1.3-1.2 3.8v7.8h-5.4v-17h5.4v2.8q1.1-1.6 2.4-2.4 1.4-0.8 3.3-0.8 0.3 0 0.6 0.1 0.3 0 0.9 0z"/><path fill-rule="evenodd" d="m301.8 656q4.4 0 6.9 2.4 2.5 2.4 2.5 6.6 0 4.2-2.5 6.5-2.5 2.4-6.9 2.4-4.4 0-6.9-2.4-2.4-2.3-2.4-6.5 0-4.2 2.4-6.6 2.5-2.4 6.9-2.4zm0 3.9q-1.8 0-2.7 1.3-1 1.3-1 3.8 0 2.4 1 3.7 0.9 1.3 2.7 1.3 1.8 0 2.8-1.3 0.9-1.3 0.9-3.7 0-2.5-0.9-3.8-1-1.3-2.8-1.3z"/><path  d="m315.1 656.4h5.5v16.7q0 3.5-1.7 5.3-1.6 1.8-4.7 1.8h-2.7v-3.6h0.9q1.6 0 2.1-0.7 0.6-0.7 0.6-2.8zm0-6.6h5.5v4.5h-5.5z"/><path fill-rule="evenodd" d="m342.8 664.9v1.5h-12.8q0.2 2 1.4 2.9 1.2 1 3.3 1 1.8 0 3.6-0.5 1.8-0.5 3.7-1.6v4.2q-2 0.8-3.9 1.1-1.9 0.4-3.9 0.4-4.6 0-7.1-2.4-2.6-2.3-2.6-6.5 0-4.2 2.5-6.6 2.5-2.4 6.9-2.4 4.1 0 6.5 2.4 2.4 2.5 2.4 6.5zm-5.6-1.8q0-1.6-0.9-2.5-0.9-1-2.4-1-1.6 0-2.6 0.9-0.9 0.9-1.2 2.6z"/><path  d="m360.6 657v4.4q-1.1-0.8-2.2-1.1-1.1-0.4-2.3-0.4-2.3 0-3.6 1.3-1.2 1.4-1.2 3.8 0 2.3 1.2 3.7 1.3 1.3 3.6 1.3 1.3 0 2.4-0.4 1.2-0.4 2.1-1.1v4.4q-1.2 0.5-2.6 0.7-1.3 0.3-2.6 0.3-4.6 0-7.2-2.4-2.6-2.3-2.6-6.5 0-4.3 2.6-6.6 2.6-2.4 7.2-2.4 1.3 0 2.6 0.3 1.3 0.2 2.6 0.7z"/><path  d="m371.3 651.6v4.8h5.6v3.9h-5.6v7.2q0 1.2 0.4 1.6 0.5 0.5 1.9 0.5h2.8v3.8h-4.7q-3.2 0-4.5-1.3-1.4-1.3-1.4-4.6v-7.2h-2.7v-3.9h2.7v-4.8z"/></svg>