<svg version="1.2" xmlns="http://www.w3.org/2000/svg" viewBox="0 0 480 480" width="480" height="480"><style></style><path fill-rule="evenodd" d="m318.3 443.6q-16.3 14.5-47.9 15.1h-0.2q-30.8 0.8-59.4-24.8v-0.1q-6.5-5.9-11.5-11.6-68.4 11.5-97.3-29.8l-0.2-0.1q-8.4-11.3-13.6-21.6-51.4-4.6-64.9-46.7l-0.1-0.1q-13-38.6-8.4-76.7v-0.1q4.7-37.5 20.4-68.8l-0.2 0.2q22.3-45.5 59.5-44 10.2-0.5 20.3 4.9 16.7-40.1 41.5-59.3l0.1-0.1q41.8-34 74.6-33.1 46.4-0.4 85.1 40v-0.2q1.8 1.9 3.5 3.8 76.1-26.8 125.5 17.5l0.1 0.1q30.2 26.1 28.7 53.8 0.6 26.8-29.1 54.1-0.4 0.5-0.7 0.8-1.1 1.5-2.5 2.7-3.8 3.2-6.7 5.2-5.6 4.3-11.7 7.8 12.8 17.8 12.1 35 0 30.9-20.1 44.9-0.3 0.3-0.7 0.6-3.1 2-5.8 3.8 1.6 7.2 1.6 14.8 0.7 31.6-29.7 54.1l-0.1 0.1q-19.9 14.2-43.5 17.5v1.2q0.2 22.6-18.5 38.8-0.2 0.1-0.2 0.3zm-53.7-136.3q-2.9 0.9-5.4 2.4h-0.2q-5.5 4.3-5.5 13 0.6 21.7 22.6 35.4l-0.1-0.1q21.7 13.1 46.8 13.1 21.1 0.1 38.1-12.1l0.1-0.1q15.2-11.2 16.2-26.5-14.2 4.2-29.7 4.2-15.3 0-29.7-3.2-19.9-4.5-37.8-15.3-2.4-1.4-4.8-2.8-0.4-0.3-0.7-0.5-5.4-3.6-9.9-7.5zm34.9-72.4q-12.8 0-20.8 4.5v0.1q-6.2 4.4-6.3 13.6 0.1 13.7 9 24.4v-0.1q4.4 5.1 10.8 9.6 2.4 1.4 4.8 2.8 13.3 8 28 11.2 10.9 2.5 22.5 2.5 16.1 0 30.1-6.6 0.9-0.4 1.9-0.7 1.4-0.9 2.8-1.4 0.3-0.3 0.6-0.4 2.8-1.9 6.1-4.2h0.1q2.9-2 6.2-4.2 0.2-0.1 0.4-0.2l0.4-0.4q6.1-6.1 6.1-17.9-0.9-10.7-11.8-22.4-11.9 2.8-23.8 3.5h-0.1q-20 1.3-39.6-3.4l0.8 0.3q-2.6-0.5-5.3-1-0.9-0.2-1.9-0.5-11.9-3.7-21-9.1zm40.7-116q4.9 8.7 7.6 17.2 0 0.4 0.1 0.6 0.1 0.4 0.2 0.9 0.9 0 1.8 0.1 0.8 0 1.6 0.1 4.6 0.6 26.5 10.3 6.2 2.8 8.7 9.1 2.5 6.4-0.3 12.7-2.8 6.3-9.1 8.8-6.4 2.4-12.8-0.4-9.4-4.1-14.3-6.2-2.4 14.9-10.4 25.5-0.1 0.2-0.2 0.4-6.1 8-14.4 12.6 2.1 0.8 4.2 1.4 2.2 0.5 4.3 0.9 0.4 0.1 0.9 0.2 14.8 3.5 29.8 2.4h0.1q11.3-0.6 22.5-3.7 3.9-1.1 7.6-2.2 11.4-4.3 20.8-11.5 0.3-0.2 0.6-0.5 1.3-0.9 3-2.2 0.5-0.7 1.2-1.5 0.7-0.9 1.5-1.7 17.8-16 19.1-30.8-0.8-14.1-17.3-28.3l-0.1-0.1q-33.5-28-83.2-14.1zm-157.3 271.9q-1.2-5.4-1.1-10.8 0-21.6 11.7-35.7l0.2-0.1q11-14 26.8-16.1-0.1-2.7-0.1-5.4 0-28.1 20.6-40.7 1.7-1.1 3.5-2.1-5.2-12.5-5.2-26.8 0-3.4 0.4-6.7-19.5 22.8-41.4 24.9-6.7 0.8-12.2-3.4-5.4-4.2-6.3-10.9-0.9-6.8 3.3-12.3 4.2-5.4 10.9-6.3 12.3-2.5 23.9-17.6l0.1-0.1q12.3-16.6 12.7-32.1-0.3-3.3-3-10.5l-0.1-0.3q-5.4-15.2-2.8-24.1 1.4-6.1 6.5-9.9 5.2-3.7 11.5-3 6.3 0.7 10.6 5.4 1.8 2.1 2.9 4.4 7.2 6.9 23.2 22.7h0.1q6.5 6.6 13.9 9.1h0.2l0.3 0.1q3.4 0.9 7 0.9 7.9 0.3 12.2-5.4l-0.2 0.2q5-7.5 5-19.1 0-2.4-0.2-4.6 0-0.3 0-0.6-0.6-4.2-1.8-8.3l0.1 0.6q-3.9-12-13.8-24.6-0.6-0.6-1.1-1.3-0.1-0.2-0.2-0.4-4-5.1-8.9-10.2-27.9-29.2-61.1-29.7-23.3 0.9-53.9 25.8l-0.1 0.1q-31.9 26.9-47.8 99.5-1.5 6.7-7.4 10.3-5.7 3.8-12.4 2.3-6.7-1.5-10.3-7.3-3.7-5.8-2.3-12.5 3.1-14 6.7-26.6-4.6-3.5-9-4.1-17.9 1.5-29.7 25.6l-0.1 0.1q-13.1 26.3-17.1 57.8v0.1q-3.5 30.9 7 62.2l-0.1-0.1q6.6 16.8 25.2 22.3 0.8-10.4 6.4-19.4 3.3-6 9.9-8 6.5-2.1 12.5 1.2 6.1 3.2 8.1 9.8 2 6.5-1.2 12.6-5.9 15.4 12.9 40.7l0.2 0.2q17.6 21.1 54.4 18.2zm87 34.8q17.7-0.4 27.3-7.5 6.4-5.7 6.7-13.6l0.1-0.2q-0.8-0.8-1.3-1.6-23.1-3.9-43.9-16.5l-0.1-0.1q-16.9-10.5-26.3-23.7-1.5-0.5-2.9-1.2-0.4-0.2-0.8-0.4-0.7 0-1.8 0-4.4 0.3-7.4 4.1l-0.2 0.1q-4.4 6-4.4 15 0.2 6.9 4.5 13.9 0.3 0.4 0.7 0.9l0.2 0.3q4.7 7 12.6 14.2v-0.2q17.8 16.1 36.8 16.5c0 0 0.2 0 0.2 0z"/><path  d="m-19.2 627.1q-1.6 0.8-3.3 1.2-1.8 0.5-3.7 0.5-5.6 0-8.9-3.2-3.4-3.2-3.4-8.6 0-5.4 3.4-8.6 3.3-3.2 8.9-3.2 1.9 0 3.7 0.5 1.7 0.4 3.3 1.2v4.7q-1.6-1.1-3.2-1.6-1.5-0.5-3.3-0.5-3.1 0-4.9 2-1.8 2-1.8 5.5 0 3.5 1.8 5.5 1.8 2 4.9 2 1.8 0 3.3-0.5 1.6-0.5 3.2-1.6z"/><path  d="m-1.9 616q-0.7-0.4-1.4-0.5-0.7-0.2-1.5-0.2-2.1 0-3.2 1.3-1.1 1.4-1.1 3.9v7.8h-5.5v-17h5.5v2.8q1-1.7 2.4-2.4 1.3-0.8 3.3-0.8 0.2 0 0.5 0 0.4 0.1 1 0.1z"/><path fill-rule="evenodd" d="m17.8 619.8v1.5h-12.7q0.2 1.9 1.3 2.9 1.2 1 3.4 1 1.7 0 3.5-0.5 1.8-0.6 3.7-1.6v4.2q-2 0.7-3.9 1.1-1.9 0.4-3.8 0.4-4.7 0-7.2-2.4-2.6-2.3-2.6-6.6 0-4.1 2.5-6.5 2.5-2.4 6.9-2.4 4.1 0 6.5 2.4 2.4 2.4 2.4 6.5zm-5.6-1.8q0-1.6-0.9-2.5-0.9-1-2.4-1-1.6 0-2.6 0.9-0.9 0.9-1.2 2.6z"/><path fill-rule="evenodd" d="m37.8 618.6v9.7h-5.5v-2.5q-1.1 1.6-2.4 2.3-1.4 0.7-3.3 0.7-2.7 0-4.3-1.6-1.7-1.5-1.7-4 0-3 2.1-4.4 2-1.4 6.4-1.4h3.2v-0.4q0-1.3-1-1.9-1-0.6-3.2-0.6-1.7 0-3.2 0.4-1.5 0.3-2.8 1v-4.1q1.7-0.5 3.5-0.7 1.8-0.2 3.5-0.2 4.6 0 6.7 1.8 2 1.8 2 5.9zm-8.3 2.1q-1.7 0-2.6 0.6-0.8 0.5-0.8 1.7 0 1 0.7 1.6 0.7 0.6 1.9 0.6 1.5 0 2.6-1.1 1-1.1 1-2.8v-0.6z"/><path  d="m48.8 606.5v4.8h5.6v3.9h-5.6v7.2q0 1.2 0.5 1.6 0.5 0.4 1.9 0.4h2.8v3.9h-4.7q-3.2 0-4.6-1.3-1.3-1.4-1.3-4.6v-7.2h-2.7v-3.9h2.7v-4.8z"/><path fill-rule="evenodd" d="m74.7 619.8v1.5h-12.7q0.2 1.9 1.4 2.9 1.2 1 3.3 1 1.7 0 3.5-0.5 1.8-0.6 3.7-1.6v4.2q-1.9 0.7-3.8 1.1-2 0.4-3.9 0.4-4.6 0-7.2-2.4-2.5-2.3-2.5-6.6 0-4.1 2.5-6.5 2.5-2.4 6.9-2.4 4 0 6.4 2.4 2.4 2.4 2.4 6.5zm-5.6-1.8q0-1.6-0.9-2.5-0.9-1-2.3-1-1.6 0-2.6 0.9-1 0.9-1.2 2.6z"/><path fill-rule="evenodd" d="m90.4 613.8v-9.1h5.5v23.6h-5.5v-2.4q-1.1 1.5-2.5 2.2-1.3 0.7-3.1 0.7-3.1 0-5.2-2.5-2-2.5-2-6.5 0-3.9 2-6.4 2.1-2.5 5.2-2.5 1.8 0 3.1 0.7 1.4 0.7 2.5 2.2zm-3.5 11q1.7 0 2.6-1.2 0.9-1.3 0.9-3.8 0-2.4-0.9-3.7-0.9-1.2-2.6-1.2-1.8 0-2.7 1.2-0.9 1.3-0.9 3.7 0 2.5 0.9 3.8 0.9 1.2 2.7 1.2z"/><path fill-rule="evenodd" d="m117.4 613.8q1.1-1.5 2.5-2.2 1.3-0.7 3.1-0.7 3.2 0 5.2 2.5 2 2.5 2 6.4 0 4-2 6.5-2 2.5-5.2 2.5-1.8 0-3.1-0.7-1.4-0.7-2.5-2.2v2.4h-5.4v-23.6h5.4zm3.6 11q1.7 0 2.7-1.3 0.9-1.3 0.9-3.7 0-2.4-0.9-3.7-1-1.3-2.7-1.3-1.7 0-2.7 1.3-0.9 1.3-0.9 3.7 0 2.4 0.9 3.7 1 1.3 2.7 1.3z"/><path  d="m132 611.3h5.4l4.6 11.6 3.9-11.6h5.4l-7.1 18.6q-1.1 2.9-2.5 4-1.5 1.1-3.8 1.2h-3.2v-3.6h1.7q1.4 0 2-0.5 0.7-0.4 1-1.5l0.2-0.5z"/><path  d="m183.6 627.1q-1.6 0.8-3.4 1.2-1.7 0.5-3.6 0.5-5.7 0-9-3.2-3.3-3.2-3.3-8.6 0-5.4 3.3-8.6 3.3-3.2 9-3.2 1.9 0 3.6 0.5 1.8 0.4 3.4 1.2v4.7q-1.7-1.1-3.2-1.6-1.6-0.5-3.4-0.5-3.1 0-4.9 2-1.8 2-1.8 5.5 0 3.5 1.8 5.5 1.8 2 4.9 2 1.8 0 3.4-0.5 1.5-0.5 3.2-1.6z"/><path  d="m200.8 616q-0.7-0.4-1.4-0.5-0.7-0.2-1.4-0.2-2.1 0-3.3 1.3-1.1 1.4-1.1 3.9v7.8h-5.4v-17h5.4v2.8q1-1.7 2.4-2.4 1.4-0.8 3.3-0.8 0.2 0 0.6 0 0.3 0.1 0.9 0.1z"/><path  d="m203.5 611.3h5.4v17h-5.4zm0-6.6h5.4v4.4h-5.4z"/><path  d="m227.5 611.8v4.2q-1.8-0.7-3.4-1.1-1.6-0.4-3.1-0.4-1.5 0-2.3 0.4-0.7 0.4-0.7 1.2 0 0.7 0.5 1 0.6 0.4 2.1 0.5l0.9 0.2q4.2 0.5 5.7 1.7 1.4 1.2 1.4 3.8 0 2.7-2 4.1-2 1.4-6 1.4-1.7 0-3.5-0.3-1.8-0.3-3.7-0.8v-4.1q1.7 0.8 3.4 1.2 1.7 0.4 3.4 0.4 1.6 0 2.4-0.5 0.8-0.4 0.8-1.3 0-0.7-0.5-1.1-0.6-0.3-2.2-0.5l-1-0.2q-3.6-0.4-5.1-1.6-1.4-1.3-1.4-3.8 0-2.7 1.8-4 1.9-1.3 5.7-1.3 1.5 0 3.2 0.2 1.6 0.3 3.6 0.7z"/><path  d="m238.6 606.5v4.8h5.6v3.9h-5.6v7.2q0 1.2 0.5 1.6 0.5 0.4 1.9 0.4h2.8v3.9h-4.7q-3.2 0-4.6-1.3-1.3-1.4-1.3-4.6v-7.2h-2.7v-3.9h2.7v-4.8z"/><path  d="m247.6 611.3h5.4v17h-5.4zm0-6.6h5.4v4.4h-5.4z"/><path fill-rule="evenodd" d="m274.2 618.6v9.7h-5.5v-2.5q-1.1 1.6-2.5 2.3-1.3 0.7-3.3 0.7-2.6 0-4.3-1.6-1.6-1.5-1.6-4 0-3 2-4.4 2.1-1.4 6.5-1.4h3.2v-0.4q0-1.3-1-1.9-1.1-0.6-3.2-0.6-1.8 0-3.3 0.4-1.5 0.3-2.8 1v-4.1q1.8-0.5 3.5-0.7 1.8-0.2 3.6-0.2 4.6 0 6.6 1.8 2.1 1.8 2.1 5.9zm-8.3 2.1q-1.8 0-2.6 0.6-0.9 0.5-0.9 1.7 0 1 0.7 1.6 0.7 0.6 2 0.6 1.5 0 2.5-1.1 1.1-1.1 1.1-2.8v-0.6z"/><path  d="m296.3 618v10.3h-5.4v-7.9q0-2.2-0.1-3-0.1-0.9-0.4-1.3-0.3-0.5-0.9-0.8-0.5-0.3-1.2-0.3-1.7 0-2.7 1.3-0.9 1.3-0.9 3.7v8.3h-5.5v-17h5.5v2.5q1.2-1.5 2.6-2.2 1.4-0.7 3-0.7 3 0 4.5 1.8 1.5 1.8 1.5 5.3z"/><path fill-rule="evenodd" d="m309.5 610.9q4.3 0 6.8 2.4 2.5 2.3 2.5 6.5 0 4.2-2.5 6.6-2.5 2.4-6.8 2.4-4.4 0-6.9-2.4-2.5-2.4-2.5-6.6 0-4.2 2.5-6.5 2.5-2.4 6.9-2.4zm0 3.9q-1.8 0-2.8 1.3-0.9 1.3-0.9 3.7 0 2.5 0.9 3.8 1 1.3 2.8 1.3 1.7 0 2.7-1.3 0.9-1.3 0.9-3.8 0-2.4-0.9-3.7-1-1.3-2.7-1.3z"/><path  d="m332.7 605.7h19.1v3.5l-12.2 14.7h12.5v4.4h-19.7v-3.5l12.1-14.7h-11.8z"/><path fill-rule="evenodd" d="m364.2 610.9q4.4 0 6.9 2.4 2.5 2.3 2.5 6.5 0 4.2-2.5 6.6-2.5 2.4-6.9 2.4-4.4 0-6.9-2.4-2.4-2.4-2.4-6.6 0-4.2 2.4-6.5 2.5-2.4 6.9-2.4zm0 3.9q-1.8 0-2.7 1.3-1 1.3-1 3.7 0 2.5 1 3.8 0.9 1.3 2.7 1.3 1.8 0 2.7-1.3 1-1.3 1-3.8 0-2.4-1-3.7-0.9-1.3-2.7-1.3z"/><path  d="m377.3 621.7v-10.4h5.5v1.7q0 1.4 0 3.5 0 2.1 0 2.8 0 2 0.1 2.9 0.1 0.9 0.3 1.4 0.4 0.5 0.9 0.8 0.5 0.3 1.2 0.3 1.7 0 2.7-1.3 1-1.3 1-3.7v-8.4h5.4v17h-5.4v-2.4q-1.2 1.5-2.6 2.2-1.4 0.7-3.1 0.7-2.9 0-4.4-1.8-1.6-1.8-1.6-5.3z"/><path  d="m413.4 611.8v4.5q-1.1-0.8-2.2-1.1-1.1-0.4-2.3-0.4-2.3 0-3.6 1.3-1.3 1.4-1.3 3.7 0 2.4 1.3 3.8 1.3 1.3 3.6 1.3 1.2 0 2.4-0.4 1.1-0.4 2.1-1.1v4.4q-1.3 0.5-2.6 0.7-1.3 0.3-2.6 0.3-4.6 0-7.2-2.4-2.6-2.3-2.6-6.6 0-4.2 2.6-6.5 2.6-2.4 7.2-2.4 1.3 0 2.6 0.2 1.3 0.3 2.6 0.7z"/><path fill-rule="evenodd" d="m434 618.6v9.7h-5.5v-2.5q-1.1 1.6-2.4 2.3-1.4 0.7-3.3 0.7-2.7 0-4.3-1.6-1.7-1.5-1.7-4 0-3 2.1-4.4 2-1.4 6.4-1.4h3.2v-0.4q0-1.3-1-1.9-1-0.6-3.1-0.6-1.8 0-3.3 0.4-1.5 0.3-2.8 1v-4.1q1.8-0.5 3.5-0.7 1.8-0.2 3.5-0.2 4.6 0 6.7 1.8 2 1.8 2 5.9zm-8.3 2.1q-1.7 0-2.5 0.6-0.9 0.5-0.9 1.7 0 1 0.7 1.6 0.7 0.6 1.9 0.6 1.6 0 2.6-1.1 1-1.1 1-2.8v-0.6z"/><path  d="m452.4 611.8v4.2q-1.8-0.7-3.4-1.1-1.6-0.4-3.1-0.4-1.5 0-2.3 0.4-0.7 0.4-0.7 1.2 0 0.7 0.5 1 0.6 0.4 2.1 0.5l1 0.2q4.1 0.5 5.6 1.7 1.4 1.2 1.4 3.8 0 2.7-2 4.1-2 1.4-6 1.4-1.6 0-3.5-0.3-1.8-0.3-3.6-0.8v-4.1q1.6 0.8 3.3 1.2 1.7 0.4 3.5 0.4 1.5 0 2.3-0.5 0.9-0.4 0.9-1.3 0-0.7-0.6-1.1-0.6-0.3-2.2-0.5l-1-0.2q-3.6-0.4-5.1-1.6-1.4-1.3-1.4-3.8 0-2.7 1.8-4 1.9-1.3 5.7-1.3 1.5 0 3.2 0.2 1.6 0.3 3.6 0.7z"/><path  d="m-26.2 635.8v3.6h-3q-1.2 0-1.6 0.4-0.5 0.4-0.5 1.4v1.2h4.7v3.9h-4.7v13.1h-5.4v-13.1h-2.7v-3.9h2.7v-1.2q0-2.7 1.5-4.1 1.6-1.3 4.8-1.3z"/><path  d="m-11.2 647.1q-0.7-0.4-1.4-0.5-0.7-0.2-1.5-0.2-2.1 0-3.2 1.4-1.1 1.3-1.1 3.8v7.8h-5.5v-17h5.5v2.8q1-1.6 2.4-2.4 1.3-0.8 3.3-0.8 0.2 0 0.5 0.1 0.4 0 1 0z"/><path fill-rule="evenodd" d="m-0.4 642q4.4 0 6.8 2.4 2.5 2.4 2.5 6.6 0 4.2-2.5 6.5-2.4 2.4-6.8 2.4-4.4 0-6.9-2.4-2.5-2.3-2.5-6.5 0-4.2 2.5-6.6 2.5-2.4 6.9-2.4zm0 3.9q-1.8 0-2.8 1.3-0.9 1.3-0.9 3.8 0 2.4 0.9 3.7 1 1.3 2.8 1.3 1.8 0 2.7-1.3 1-1.3 1-3.7 0-2.5-1-3.8-0.9-1.3-2.7-1.3z"/><path  d="m28.6 645.3q1.1-1.6 2.5-2.4 1.4-0.9 3.1-0.9 2.9 0 4.5 1.8 1.5 1.8 1.5 5.3v10.3h-5.5v-8.8q0-0.2 0-0.4 0.1-0.3 0.1-0.6 0-1.9-0.6-2.7-0.5-0.8-1.7-0.8-1.5 0-2.4 1.3-0.8 1.3-0.9 3.7v8.3h-5.4v-8.8q0-2.9-0.5-3.7-0.5-0.8-1.7-0.8-1.6 0-2.5 1.3-0.8 1.3-0.8 3.7v8.3h-5.5v-17h5.5v2.5q1-1.4 2.3-2.1 1.3-0.8 2.9-0.8 1.7 0 3.1 0.9 1.3 0.8 2 2.4z"/><path  d="m62 637.6v4.8h5.7v3.9h-5.7v7.2q0 1.2 0.5 1.6 0.5 0.5 1.9 0.5h2.8v3.8h-4.7q-3.2 0-4.5-1.3-1.4-1.3-1.4-4.6v-7.2h-2.7v-3.9h2.7v-4.8z"/><path  d="m88.1 649.1v10.3h-5.5v-7.9q0-2.2-0.1-3-0.1-0.8-0.3-1.3-0.3-0.5-0.9-0.8-0.5-0.3-1.2-0.3-1.7 0-2.7 1.3-1 1.4-1 3.7v8.3h-5.4v-23.6h5.4v9.1q1.2-1.5 2.6-2.2 1.4-0.7 3.1-0.7 2.9 0 4.5 1.8 1.5 1.8 1.5 5.3z"/><path fill-rule="evenodd" d="m110.1 650.9v1.5h-12.7q0.2 2 1.4 2.9 1.2 1 3.3 1 1.7 0 3.5-0.5 1.8-0.5 3.7-1.6v4.2q-1.9 0.8-3.9 1.1-1.9 0.4-3.8 0.4-4.6 0-7.2-2.4-2.5-2.3-2.5-6.5 0-4.2 2.5-6.6 2.5-2.4 6.9-2.4 4 0 6.4 2.4 2.4 2.5 2.4 6.5zm-5.6-1.8q0-1.6-0.9-2.5-0.9-1-2.3-1-1.6 0-2.6 0.9-1 0.9-1.2 2.6z"/><path  d="m125.3 636.8h6.5l8.3 15.5v-15.5h5.5v22.6h-6.5l-8.2-15.5v15.5h-5.6z"/><path fill-rule="evenodd" d="m159.2 642q4.4 0 6.9 2.4 2.4 2.4 2.4 6.6 0 4.2-2.4 6.5-2.5 2.4-6.9 2.4-4.4 0-6.9-2.4-2.5-2.3-2.5-6.5 0-4.2 2.5-6.6 2.5-2.4 6.9-2.4zm0 3.9q-1.8 0-2.8 1.3-0.9 1.3-0.9 3.8 0 2.4 0.9 3.7 1 1.3 2.8 1.3 1.8 0 2.7-1.3 1-1.3 1-3.7 0-2.5-1-3.8-0.9-1.3-2.7-1.3z"/><path  d="m172.3 652.8v-10.4h5.5v1.7q0 1.4 0 3.5-0.1 2.1-0.1 2.8 0 2 0.1 3 0.1 0.9 0.4 1.3 0.3 0.5 0.9 0.8 0.5 0.3 1.2 0.3 1.7 0 2.7-1.3 1-1.3 1-3.7v-8.4h5.4v17h-5.4v-2.4q-1.3 1.5-2.7 2.2-1.3 0.7-3 0.7-2.9 0-4.5-1.8-1.5-1.8-1.5-5.3z"/><path  d="m211.7 649.1v10.3h-5.4v-7.9q0-2.2-0.1-3-0.1-0.8-0.4-1.3-0.3-0.5-0.9-0.8-0.5-0.3-1.2-0.3-1.7 0-2.7 1.3-0.9 1.4-0.9 3.7v8.3h-5.5v-17h5.5v2.5q1.2-1.5 2.6-2.2 1.4-0.7 3-0.7 3 0 4.5 1.8 1.5 1.8 1.5 5.3z"/><path fill-rule="evenodd" d="m227.9 636.8h9.7q4.3 0 6.6 1.9 2.3 1.9 2.3 5.5 0 3.5-2.3 5.4-2.3 2-6.6 2h-3.9v7.8h-5.8zm5.8 4.3v6.3h3.2q1.7 0 2.7-0.8 0.9-0.8 0.9-2.4 0-1.5-0.9-2.3-1-0.8-2.7-0.8z"/><path  d="m263 647.1q-0.7-0.4-1.4-0.5-0.7-0.2-1.4-0.2-2.1 0-3.2 1.4-1.2 1.3-1.2 3.8v7.8h-5.4v-17h5.4v2.8q1.1-1.6 2.4-2.4 1.4-0.8 3.3-0.8 0.3 0 0.6 0.1 0.3 0 0.9 0z"/><path fill-rule="evenodd" d="m273.8 642q4.4 0 6.9 2.4 2.5 2.4 2.5 6.6 0 4.2-2.5 6.5-2.5 2.4-6.9 2.4-4.4 0-6.9-2.4-2.4-2.3-2.4-6.5 0-4.2 2.4-6.6 2.5-2.4 6.9-2.4zm0 3.9q-1.8 0-2.7 1.3-1 1.3-1 3.8 0 2.4 1 3.7 0.9 1.3 2.7 1.3 1.8 0 2.8-1.3 0.9-1.3 0.9-3.7 0-2.5-0.9-3.8-1-1.3-2.8-1.3z"/><path  d="m287.1 642.4h5.5v16.7q0 3.5-1.7 5.3-1.6 1.8-4.7 1.8h-2.7v-3.6h0.9q1.6 0 2.1-0.7 0.6-0.7 0.6-2.8zm0-6.6h5.5v4.5h-5.5z"/><path fill-rule="evenodd" d="m314.8 650.9v1.5h-12.8q0.2 2 1.4 2.9 1.2 1 3.3 1 1.8 0 3.6-0.5 1.8-0.5 3.7-1.6v4.2q-2 0.8-3.9 1.1-1.9 0.4-3.9 0.4-4.6 0-7.1-2.4-2.6-2.3-2.6-6.5 0-4.2 2.5-6.6 2.5-2.4 6.9-2.4 4.1 0 6.5 2.4 2.4 2.5 2.4 6.5zm-5.6-1.8q0-1.6-0.9-2.5-0.9-1-2.4-1-1.6 0-2.6 0.9-0.9 0.9-1.2 2.6z"/><path  d="m332.6 643v4.4q-1.1-0.8-2.2-1.1-1.1-0.4-2.3-0.4-2.3 0-3.6 1.3-1.2 1.4-1.2 3.8 0 2.3 1.2 3.7 1.3 1.3 3.6 1.3 1.3 0 2.4-0.4 1.2-0.4 2.1-1.1v4.4q-1.2 0.5-2.6 0.7-1.3 0.3-2.6 0.3-4.6 0-7.2-2.4-2.6-2.3-2.6-6.5 0-4.3 2.6-6.6 2.6-2.4 7.2-2.4 1.3 0 2.6 0.3 1.3 0.2 2.6 0.7z"/><path  d="m343.3 637.6v4.8h5.6v3.9h-5.6v7.2q0 1.2 0.4 1.6 0.5 0.5 1.9 0.5h2.8v3.8h-4.7q-3.2 0-4.5-1.3-1.4-1.3-1.4-4.6v-7.2h-2.7v-3.9h2.7v-4.8z"/></svg>