<svg version="1.2" xmlns="http://www.w3.org/2000/svg" viewBox="0 0 526 526" width="526" height="526"><style></style><path fill-rule="evenodd" d="m6 265.7q4-31.9 17.1-58.4 19.2-38.7 50.8-37.5 8.7-0.4 17.3 4.1 14.2-34.1 35.3-50.5 35.6-28.8 63.6-28.1 39.5-0.4 72.5 34 12.9 13.5 20.2 26.5 29.1-14.3 73.2-29.4 56.3-19.3 75.1-19.4h0.2q20.7-0.8 36.9 5.3h-0.2q18.9 6.6 28.4 24.3 11.7 18.2-4.4 48l-0.1 0.1q-9.9 21.5-55.9 35.7 0.8 0 1.5 0.1 65.8 4.8 77.8 34.4 14.9 30 0.6 53.8l0.1-0.1q-13.5 24.1-38.7 28-0.1 0.1-0.2 0.1-19.4 3.1-73.7-4-26.2-3.5-51.4-8.2 3 8.2 2.8 17 0.9 25.6-27.4 43.4l-0.1 0.1q-21.2 13-47 13.8v0.7q0.8 19.9-19.6 34.8-17.7 13.1-41.2 13.2-27 0.4-49.9-23.5l-0.1-0.1q-9.6-9.9-14.8-19.7h-1.2q-0.9 0.1-4.2 0.7-6.5 1-9.4 1-29.6 0.1-51.4-22.5-5.8-6-10.1-12.4-1.5 0.2-3.1 0.2-49.7-1.6-62-40.1-11.4-32.8-7.3-65.4zm187.7 98.4q-2.4-0.2-4.8-1.4h0.4q-0.2-0.1-0.4-0.1-0.5 0-2.3 0-3.8 0.1-6.3 3.3l-0.1 0.1q-3.8 5.2-3.8 12.7 0.6 12.6 13.4 25.7l0.1 0.1q13.7 14.4 29.6 14.9 14 0 24.5-7.7 7.4-5.5 8.1-12.2-1.3-1.6-2.2-3.3-15.7-3.5-30-11h-0.1q-17.3-9.1-26.1-21.1zm-159.7-94.9q-3.2 26.2 5.9 52.7 6.7 16.9 27.5 20.3-0.5-3.4-0.6-7-0.3-5.8 3.7-10.1 3.9-4.3 9.8-4.6 5.8-0.2 10.1 3.7 4.3 4 4.6 9.8 0.9 16.7 13.7 29.8 13.3 13.8 31.2 13.9 1.5-0.1 4.8-0.6h0.1q1.9-0.3 3.5-0.5 0.6-16.7 10-28.3l0.1-0.1q10.6-13.1 26.2-13.8 0.2-22.6 19.4-33l0.1-0.1q12.1-6.7 31.8-6.7 6.6-0.5 26.8 7.3 0.1 0 0.3 0.1 19.4 7.9 22.9 11.6 4.4 3.8 4.9 9.6 0.4 5.8-3.5 10.2-3.8 4.4-9.6 4.9-5.8 0.4-10.2-3.5-2.6-1.6-14.8-6.6-0.2 0-0.3-0.1-12.6-4.8-16.6-5.3-11.3 0-18.4 3.4l0.1-0.1q-4.9 2.7-4.7 8.5 1 15.5 20.3 25.7h-0.1q20 10.5 43.7 10.5 19.8 0 35.9-9.8l-0.1 0.1q13.3-8.4 14.2-19.5-0.4-10.3-9.8-18.9l-0.1-0.1q-6.9-6.1-14.4-8.7-0.6-0.2-1-0.4-1.7-0.5-3.4-0.8-0.4-0.1-0.7-0.1-1.5-0.2-3.1-0.4-5.7-0.5-9.5-5.1-3.6-4.5-3-10.3 0.6-5.8 5.1-9.5 4.5-3.6 10.3-3 2.1 0.2 4 0.4 0.3 0 0.7 0.1 4.7 0.7 9 2.1 46.1 11.2 96.3 17.8 48.6 6.4 66 4.1l-0.2 0.1q11.9-2.2 18.4-14l0.1-0.1c4.2-8.1 3.7-17.2-1.4-27.5q-9.9-15.3-54.5-18.6-53.7-3.8-134.6 7.6-5.4 0.7-9.9-2.4-4.6-3.2-5.9-8.5-1.1-5.3 1.7-10.1 2.7-4.8 7.9-6.4 52.4-16.3 111.6-29.7h-0.1q50.1-11.5 61-27.9l-0.1 0.1q7.3-13.5 4.6-21.4-4.4-8.1-13.1-11.2h-0.2q-11.6-4.1-26.3-3.7h-0.2q-16.4 0.8-66.7 18.1-44.8 15.3-73.2 29.7 0.4 4 0.4 8 0 20.1-9.7 32.6l-0.1 0.2q-11.8 15.6-32.9 15.8-17.8 0.2-32.7-11.8-3.2 16-15.7 32.5-18 23.8-38.8 26.1-5.8 0.8-10.5-2.7-4.7-3.5-5.5-9.2-0.8-5.8 2.8-10.5 3.4-4.7 9.1-5.5 10.7-2.3 20.5-15.2 10.6-14.1 11-27.2-0.3-2.9-2.6-9-0.1-0.2-0.2-0.3-4.4-13.2-2.2-20.6 1.1-5.3 5.5-8.5 4.4-3.1 9.8-2.5 5.3 0.5 9 4.5 1.7 2 2.5 4.1 6.3 5.9 19.7 19.2 8.3 8.1 18.3 8.4 6.6 0.3 10.3-4.5 4.2-6.2 4.2-15.9 0-5.7-1.6-11.4-0.1-0.1-0.1-0.3-5.2-14.7-20.4-30.5v0.1q-23.8-24.9-52-25.3-19.8 0.7-45.9 21.8-27.2 23.1-40.8 85-1.3 5.6-6.2 8.8-4.9 3.1-10.6 1.9-5.7-1.3-8.8-6.2-3.2-5-2-10.6 2.7-12 5.8-22.7-3.9-3-7.7-3.5-15.3 1.2-25.5 21.8-11 22.4-14.4 49.4z"/><path  d="m-3.2 652.1q-1.6 0.8-3.3 1.2-1.8 0.5-3.7 0.5-5.6 0-8.9-3.2-3.4-3.2-3.4-8.6 0-5.4 3.4-8.6 3.3-3.2 8.9-3.2 1.9 0 3.7 0.5 1.7 0.4 3.3 1.2v4.7q-1.6-1.1-3.2-1.6-1.5-0.5-3.3-0.5-3.1 0-4.9 2-1.8 2-1.8 5.5 0 3.5 1.8 5.5 1.8 2 4.9 2 1.8 0 3.3-0.5 1.6-0.5 3.2-1.6z"/><path  d="m14.1 641q-0.7-0.4-1.4-0.5-0.7-0.2-1.5-0.2-2.1 0-3.2 1.3-1.1 1.4-1.1 3.9v7.8h-5.5v-17h5.5v2.8q1-1.7 2.4-2.4 1.3-0.8 3.3-0.8 0.2 0 0.5 0 0.4 0.1 1 0.1z"/><path fill-rule="evenodd" d="m33.8 644.8v1.5h-12.7q0.2 1.9 1.3 2.9 1.2 1 3.4 1 1.7 0 3.5-0.5 1.8-0.6 3.7-1.6v4.2q-2 0.7-3.9 1.1-1.9 0.4-3.8 0.4-4.7 0-7.2-2.4-2.6-2.3-2.6-6.6 0-4.1 2.5-6.5 2.5-2.4 6.9-2.4 4.1 0 6.5 2.4 2.4 2.4 2.4 6.5zm-5.6-1.8q0-1.6-0.9-2.5-0.9-1-2.4-1-1.6 0-2.6 0.9-0.9 0.9-1.2 2.6z"/><path fill-rule="evenodd" d="m53.8 643.6v9.7h-5.5v-2.5q-1.1 1.6-2.4 2.3-1.4 0.7-3.3 0.7-2.7 0-4.3-1.6-1.7-1.5-1.7-4 0-3 2.1-4.4 2-1.4 6.4-1.4h3.2v-0.4q0-1.3-1-1.9-1-0.6-3.2-0.6-1.7 0-3.2 0.4-1.5 0.3-2.8 1v-4.1q1.7-0.5 3.5-0.7 1.8-0.2 3.5-0.2 4.6 0 6.7 1.8 2 1.8 2 5.9zm-8.3 2.1q-1.7 0-2.6 0.6-0.8 0.5-0.8 1.7 0 1 0.7 1.6 0.7 0.6 1.9 0.6 1.5 0 2.6-1.1 1-1.1 1-2.8v-0.6z"/><path  d="m64.8 631.5v4.8h5.6v3.9h-5.6v7.2q0 1.2 0.5 1.6 0.5 0.4 1.9 0.4h2.8v3.9h-4.7q-3.2 0-4.6-1.3-1.3-1.4-1.3-4.6v-7.2h-2.7v-3.9h2.7v-4.8z"/><path fill-rule="evenodd" d="m90.7 644.8v1.5h-12.7q0.2 1.9 1.4 2.9 1.2 1 3.3 1 1.7 0 3.5-0.5 1.8-0.6 3.7-1.6v4.2q-1.9 0.7-3.8 1.1-2 0.4-3.9 0.4-4.6 0-7.2-2.4-2.5-2.3-2.5-6.6 0-4.1 2.5-6.5 2.5-2.4 6.9-2.4 4 0 6.4 2.4 2.4 2.4 2.4 6.5zm-5.6-1.8q0-1.6-0.9-2.5-0.9-1-2.3-1-1.6 0-2.6 0.9-1 0.9-1.2 2.6z"/><path fill-rule="evenodd" d="m106.4 638.8v-9.1h5.5v23.6h-5.5v-2.4q-1.1 1.5-2.5 2.2-1.3 0.7-3.1 0.7-3.1 0-5.2-2.5-2-2.5-2-6.5 0-3.9 2-6.4 2.1-2.5 5.2-2.5 1.8 0 3.1 0.7 1.4 0.7 2.5 2.2zm-3.5 11q1.7 0 2.6-1.2 0.9-1.3 0.9-3.8 0-2.4-0.9-3.7-0.9-1.2-2.6-1.2-1.8 0-2.7 1.2-0.9 1.3-0.9 3.7 0 2.5 0.9 3.8 0.9 1.2 2.7 1.2z"/><path fill-rule="evenodd" d="m133.4 638.8q1.1-1.5 2.5-2.2 1.3-0.7 3.1-0.7 3.2 0 5.2 2.5 2 2.5 2 6.4 0 4-2 6.5-2 2.5-5.2 2.5-1.8 0-3.1-0.7-1.4-0.7-2.5-2.2v2.4h-5.4v-23.6h5.4zm3.6 11q1.7 0 2.7-1.3 0.9-1.3 0.9-3.7 0-2.4-0.9-3.7-1-1.3-2.7-1.3-1.7 0-2.7 1.3-0.9 1.3-0.9 3.7 0 2.4 0.9 3.7 1 1.3 2.7 1.3z"/><path  d="m148 636.3h5.4l4.6 11.6 3.9-11.6h5.4l-7.1 18.6q-1.1 2.9-2.5 4-1.5 1.1-3.8 1.2h-3.2v-3.6h1.7q1.4 0 2-0.5 0.7-0.4 1-1.5l0.2-0.5z"/><path  d="m199.6 652.1q-1.6 0.8-3.4 1.2-1.7 0.5-3.6 0.5-5.7 0-9-3.2-3.3-3.2-3.3-8.6 0-5.4 3.3-8.6 3.3-3.2 9-3.2 1.9 0 3.6 0.5 1.8 0.4 3.4 1.2v4.7q-1.7-1.1-3.2-1.6-1.6-0.5-3.4-0.5-3.1 0-4.9 2-1.8 2-1.8 5.5 0 3.5 1.8 5.5 1.8 2 4.9 2 1.8 0 3.4-0.5 1.5-0.5 3.2-1.6z"/><path  d="m216.8 641q-0.7-0.4-1.4-0.5-0.7-0.2-1.4-0.2-2.1 0-3.3 1.3-1.1 1.4-1.1 3.9v7.8h-5.4v-17h5.4v2.8q1-1.7 2.4-2.4 1.4-0.8 3.3-0.8 0.2 0 0.6 0 0.3 0.1 0.9 0.1z"/><path  d="m219.5 636.3h5.4v17h-5.4zm0-6.6h5.4v4.4h-5.4z"/><path  d="m243.5 636.8v4.2q-1.8-0.7-3.4-1.1-1.6-0.4-3.1-0.4-1.5 0-2.3 0.4-0.7 0.4-0.7 1.2 0 0.7 0.5 1 0.6 0.4 2.1 0.5l0.9 0.2q4.2 0.5 5.7 1.7 1.4 1.2 1.4 3.8 0 2.7-2 4.1-2 1.4-6 1.4-1.7 0-3.5-0.3-1.8-0.3-3.7-0.8v-4.1q1.7 0.8 3.4 1.2 1.7 0.4 3.4 0.4 1.6 0 2.4-0.5 0.8-0.4 0.8-1.3 0-0.7-0.5-1.1-0.6-0.3-2.2-0.5l-1-0.2q-3.6-0.4-5.1-1.6-1.4-1.3-1.4-3.8 0-2.7 1.8-4 1.9-1.3 5.7-1.3 1.5 0 3.2 0.2 1.6 0.3 3.6 0.7z"/><path  d="m254.6 631.5v4.8h5.6v3.9h-5.6v7.2q0 1.2 0.5 1.6 0.5 0.4 1.9 0.4h2.8v3.9h-4.7q-3.2 0-4.6-1.3-1.3-1.4-1.3-4.6v-7.2h-2.7v-3.9h2.7v-4.8z"/><path  d="m263.6 636.3h5.4v17h-5.4zm0-6.6h5.4v4.4h-5.4z"/><path fill-rule="evenodd" d="m290.2 643.6v9.7h-5.5v-2.5q-1.1 1.6-2.5 2.3-1.3 0.7-3.3 0.7-2.6 0-4.3-1.6-1.6-1.5-1.6-4 0-3 2-4.4 2.1-1.4 6.5-1.4h3.2v-0.4q0-1.3-1-1.9-1.1-0.6-3.2-0.6-1.8 0-3.3 0.4-1.5 0.3-2.8 1v-4.1q1.8-0.5 3.5-0.7 1.8-0.2 3.6-0.2 4.6 0 6.6 1.8 2.1 1.8 2.1 5.9zm-8.3 2.1q-1.8 0-2.6 0.6-0.9 0.5-0.9 1.7 0 1 0.7 1.6 0.7 0.6 2 0.6 1.5 0 2.5-1.1 1.1-1.1 1.1-2.8v-0.6z"/><path  d="m312.3 643v10.3h-5.4v-7.9q0-2.2-0.1-3-0.1-0.9-0.4-1.3-0.3-0.5-0.9-0.8-0.5-0.3-1.2-0.3-1.7 0-2.7 1.3-0.9 1.3-0.9 3.7v8.3h-5.5v-17h5.5v2.5q1.2-1.5 2.6-2.2 1.4-0.7 3-0.7 3 0 4.5 1.8 1.5 1.8 1.5 5.3z"/><path fill-rule="evenodd" d="m325.5 635.9q4.3 0 6.8 2.4 2.5 2.3 2.5 6.5 0 4.2-2.5 6.6-2.5 2.4-6.8 2.4-4.4 0-6.9-2.4-2.5-2.4-2.5-6.6 0-4.2 2.5-6.5 2.5-2.4 6.9-2.4zm0 3.9q-1.8 0-2.8 1.3-0.9 1.3-0.9 3.7 0 2.5 0.9 3.8 1 1.3 2.8 1.3 1.7 0 2.7-1.3 0.9-1.3 0.9-3.8 0-2.4-0.9-3.7-1-1.3-2.7-1.3z"/><path  d="m348.7 630.7h19.1v3.5l-12.2 14.7h12.5v4.4h-19.7v-3.5l12.1-14.7h-11.8z"/><path fill-rule="evenodd" d="m380.2 635.9q4.4 0 6.9 2.4 2.5 2.3 2.5 6.5 0 4.2-2.5 6.6-2.5 2.4-6.9 2.4-4.4 0-6.9-2.4-2.4-2.4-2.4-6.6 0-4.2 2.4-6.5 2.5-2.4 6.9-2.4zm0 3.9q-1.8 0-2.7 1.3-1 1.3-1 3.7 0 2.5 1 3.8 0.9 1.3 2.7 1.3 1.8 0 2.7-1.3 1-1.3 1-3.8 0-2.4-1-3.7-0.9-1.3-2.7-1.3z"/><path  d="m393.3 646.7v-10.4h5.5v1.7q0 1.4 0 3.5 0 2.1 0 2.8 0 2 0.1 2.9 0.1 0.9 0.3 1.4 0.4 0.5 0.9 0.8 0.5 0.3 1.2 0.3 1.7 0 2.7-1.3 1-1.3 1-3.7v-8.4h5.4v17h-5.4v-2.4q-1.2 1.5-2.6 2.2-1.4 0.7-3.1 0.7-2.9 0-4.4-1.8-1.6-1.8-1.6-5.3z"/><path  d="m429.4 636.8v4.5q-1.1-0.8-2.2-1.1-1.1-0.4-2.3-0.4-2.3 0-3.6 1.3-1.3 1.4-1.3 3.7 0 2.4 1.3 3.8 1.3 1.3 3.6 1.3 1.2 0 2.4-0.4 1.1-0.4 2.1-1.1v4.4q-1.3 0.5-2.6 0.7-1.3 0.3-2.6 0.3-4.6 0-7.2-2.4-2.6-2.3-2.6-6.6 0-4.2 2.6-6.5 2.6-2.4 7.2-2.4 1.3 0 2.6 0.2 1.3 0.3 2.6 0.7z"/><path fill-rule="evenodd" d="m450 643.6v9.7h-5.5v-2.5q-1.1 1.6-2.4 2.3-1.4 0.7-3.3 0.7-2.7 0-4.3-1.6-1.7-1.5-1.7-4 0-3 2.1-4.4 2-1.4 6.4-1.4h3.2v-0.4q0-1.3-1-1.9-1-0.6-3.1-0.6-1.8 0-3.3 0.4-1.5 0.3-2.8 1v-4.1q1.8-0.5 3.5-0.7 1.8-0.2 3.5-0.2 4.6 0 6.7 1.8 2 1.8 2 5.9zm-8.3 2.1q-1.7 0-2.5 0.6-0.9 0.5-0.9 1.7 0 1 0.7 1.6 0.7 0.6 1.9 0.6 1.6 0 2.6-1.1 1-1.1 1-2.8v-0.6z"/><path  d="m468.4 636.8v4.2q-1.8-0.7-3.4-1.1-1.6-0.4-3.1-0.4-1.5 0-2.3 0.4-0.7 0.4-0.7 1.2 0 0.7 0.5 1 0.6 0.4 2.1 0.5l1 0.2q4.1 0.5 5.6 1.7 1.4 1.2 1.4 3.8 0 2.7-2 4.1-2 1.4-6 1.4-1.6 0-3.5-0.3-1.8-0.3-3.6-0.8v-4.1q1.6 0.8 3.3 1.2 1.7 0.4 3.5 0.4 1.5 0 2.3-0.5 0.9-0.4 0.9-1.3 0-0.7-0.6-1.1-0.6-0.3-2.2-0.5l-1-0.2q-3.6-0.4-5.1-1.6-1.4-1.3-1.4-3.8 0-2.7 1.8-4 1.9-1.3 5.7-1.3 1.5 0 3.2 0.2 1.6 0.3 3.6 0.7z"/><path  d="m-10.2 660.8v3.6h-3q-1.2 0-1.6 0.4-0.5 0.4-0.5 1.4v1.2h4.7v3.9h-4.7v13.1h-5.4v-13.1h-2.7v-3.9h2.7v-1.2q0-2.7 1.5-4.1 1.6-1.3 4.8-1.3z"/><path  d="m4.8 672.1q-0.7-0.4-1.4-0.5-0.7-0.2-1.5-0.2-2.1 0-3.2 1.4-1.1 1.3-1.1 3.8v7.8h-5.5v-17h5.5v2.8q1-1.6 2.4-2.4 1.3-0.8 3.3-0.8 0.2 0 0.5 0.1 0.4 0 1 0z"/><path fill-rule="evenodd" d="m15.6 667q4.4 0 6.8 2.4 2.5 2.4 2.5 6.6 0 4.2-2.5 6.5-2.4 2.4-6.8 2.4-4.4 0-6.9-2.4-2.5-2.3-2.5-6.5 0-4.2 2.5-6.6 2.5-2.4 6.9-2.4zm0 3.9q-1.8 0-2.8 1.3-0.9 1.3-0.9 3.8 0 2.4 0.9 3.7 1 1.3 2.8 1.3 1.8 0 2.7-1.3 1-1.3 1-3.7 0-2.5-1-3.8-0.9-1.3-2.7-1.3z"/><path  d="m44.6 670.3q1.1-1.6 2.5-2.4 1.4-0.9 3.1-0.9 2.9 0 4.5 1.8 1.5 1.8 1.5 5.3v10.3h-5.5v-8.8q0-0.2 0-0.4 0.1-0.3 0.1-0.6 0-1.9-0.6-2.7-0.5-0.8-1.7-0.8-1.5 0-2.4 1.3-0.8 1.3-0.9 3.7v8.3h-5.4v-8.8q0-2.9-0.5-3.7-0.5-0.8-1.7-0.8-1.6 0-2.5 1.3-0.8 1.3-0.8 3.7v8.3h-5.5v-17h5.5v2.5q1-1.4 2.3-2.1 1.3-0.8 2.9-0.8 1.7 0 3.1 0.9 1.3 0.8 2 2.4z"/><path  d="m78 662.6v4.8h5.7v3.9h-5.7v7.2q0 1.2 0.5 1.6 0.5 0.5 1.9 0.5h2.8v3.8h-4.7q-3.2 0-4.5-1.3-1.4-1.3-1.4-4.6v-7.2h-2.7v-3.9h2.7v-4.8z"/><path  d="m104.1 674.1v10.3h-5.5v-7.9q0-2.2-0.1-3-0.1-0.8-0.3-1.3-0.3-0.5-0.9-0.8-0.5-0.3-1.2-0.3-1.7 0-2.7 1.3-1 1.4-1 3.7v8.3h-5.4v-23.6h5.4v9.1q1.2-1.5 2.6-2.2 1.4-0.7 3.1-0.7 2.9 0 4.5 1.8 1.5 1.8 1.5 5.3z"/><path fill-rule="evenodd" d="m126.1 675.9v1.5h-12.7q0.2 2 1.4 2.9 1.2 1 3.3 1 1.7 0 3.5-0.5 1.8-0.5 3.7-1.6v4.2q-1.9 0.8-3.9 1.1-1.9 0.4-3.8 0.4-4.6 0-7.2-2.4-2.5-2.3-2.5-6.5 0-4.2 2.5-6.6 2.5-2.4 6.9-2.4 4 0 6.4 2.4 2.4 2.5 2.4 6.5zm-5.6-1.8q0-1.6-0.9-2.5-0.9-1-2.3-1-1.6 0-2.6 0.9-1 0.9-1.2 2.6z"/><path  d="m141.3 661.8h6.5l8.3 15.5v-15.5h5.5v22.6h-6.5l-8.2-15.5v15.5h-5.6z"/><path fill-rule="evenodd" d="m175.2 667q4.4 0 6.9 2.4 2.4 2.4 2.4 6.6 0 4.2-2.4 6.5-2.5 2.4-6.9 2.4-4.4 0-6.9-2.4-2.5-2.3-2.5-6.5 0-4.2 2.5-6.6 2.5-2.4 6.9-2.4zm0 3.9q-1.8 0-2.8 1.3-0.9 1.3-0.9 3.8 0 2.4 0.9 3.7 1 1.3 2.8 1.3 1.8 0 2.7-1.3 1-1.3 1-3.7 0-2.5-1-3.8-0.9-1.3-2.7-1.3z"/><path  d="m188.3 677.8v-10.4h5.5v1.7q0 1.4 0 3.5-0.1 2.1-0.1 2.8 0 2 0.1 3 0.1 0.9 0.4 1.3 0.3 0.5 0.9 0.8 0.5 0.3 1.2 0.3 1.7 0 2.7-1.3 1-1.3 1-3.7v-8.4h5.4v17h-5.4v-2.4q-1.3 1.5-2.7 2.2-1.3 0.7-3 0.7-2.9 0-4.5-1.8-1.5-1.8-1.5-5.3z"/><path  d="m227.7 674.1v10.3h-5.4v-7.9q0-2.2-0.1-3-0.1-0.8-0.4-1.3-0.3-0.5-0.9-0.8-0.5-0.3-1.2-0.3-1.7 0-2.7 1.3-0.9 1.4-0.9 3.7v8.3h-5.5v-17h5.5v2.5q1.2-1.5 2.6-2.2 1.4-0.7 3-0.7 3 0 4.5 1.8 1.5 1.8 1.5 5.3z"/><path fill-rule="evenodd" d="m243.9 661.8h9.7q4.3 0 6.6 1.9 2.3 1.9 2.3 5.5 0 3.5-2.3 5.4-2.3 2-6.6 2h-3.9v7.8h-5.8zm5.8 4.3v6.3h3.2q1.7 0 2.7-0.8 0.9-0.8 0.9-2.4 0-1.5-0.9-2.3-1-0.8-2.7-0.8z"/><path  d="m279 672.1q-0.7-0.4-1.4-0.5-0.7-0.2-1.4-0.2-2.1 0-3.2 1.4-1.2 1.3-1.2 3.8v7.8h-5.4v-17h5.4v2.8q1.1-1.6 2.4-2.4 1.4-0.8 3.3-0.8 0.3 0 0.6 0.1 0.3 0 0.9 0z"/><path fill-rule="evenodd" d="m289.8 667q4.4 0 6.9 2.4 2.5 2.4 2.5 6.6 0 4.2-2.5 6.5-2.5 2.4-6.9 2.4-4.4 0-6.9-2.4-2.4-2.3-2.4-6.5 0-4.2 2.4-6.6 2.5-2.4 6.9-2.4zm0 3.9q-1.8 0-2.7 1.3-1 1.3-1 3.8 0 2.4 1 3.7 0.9 1.3 2.7 1.3 1.8 0 2.8-1.3 0.9-1.3 0.9-3.7 0-2.5-0.9-3.8-1-1.3-2.8-1.3z"/><path  d="m303.1 667.4h5.5v16.7q0 3.5-1.7 5.3-1.6 1.8-4.7 1.8h-2.7v-3.6h0.9q1.6 0 2.1-0.7 0.6-0.7 0.6-2.8zm0-6.6h5.5v4.5h-5.5z"/><path fill-rule="evenodd" d="m330.8 675.9v1.5h-12.8q0.2 2 1.4 2.9 1.2 1 3.3 1 1.8 0 3.6-0.5 1.8-0.5 3.7-1.6v4.2q-2 0.8-3.9 1.1-1.9 0.4-3.9 0.4-4.6 0-7.1-2.4-2.6-2.3-2.6-6.5 0-4.2 2.5-6.6 2.5-2.4 6.9-2.4 4.1 0 6.5 2.4 2.4 2.5 2.4 6.5zm-5.6-1.8q0-1.6-0.9-2.5-0.9-1-2.4-1-1.6 0-2.6 0.9-0.9 0.9-1.2 2.6z"/><path  d="m348.6 668v4.4q-1.1-0.8-2.2-1.1-1.1-0.4-2.3-0.4-2.3 0-3.6 1.3-1.2 1.4-1.2 3.8 0 2.3 1.2 3.7 1.3 1.3 3.6 1.3 1.3 0 2.4-0.4 1.2-0.4 2.1-1.1v4.4q-1.2 0.5-2.6 0.7-1.3 0.3-2.6 0.3-4.6 0-7.2-2.4-2.6-2.3-2.6-6.5 0-4.3 2.6-6.6 2.6-2.4 7.2-2.4 1.3 0 2.6 0.3 1.3 0.2 2.6 0.7z"/><path  d="m359.3 662.6v4.8h5.6v3.9h-5.6v7.2q0 1.2 0.4 1.6 0.5 0.5 1.9 0.5h2.8v3.8h-4.7q-3.2 0-4.5-1.3-1.4-1.3-1.4-4.6v-7.2h-2.7v-3.9h2.7v-4.8z"/></svg>